<?xml version="1.0" encoding="UTF-8" standalone="no"?>
<!-- Generator: Adobe Illustrator 24.2.1, SVG Export Plug-In . SVG Version: 6.00 Build 0)  -->

<svg
   version="1.1"
   id="Layer_1"
   x="0px"
   y="0px"
   viewBox="0 0 535 617.8"
   style="enable-background:new 0 0 535 617.8;"
   xml:space="preserve"
   xmlns="http://www.w3.org/2000/svg"
   xmlns:svg="http://www.w3.org/2000/svg"><defs
   id="defs3" />

<g
   id="Layer_31"
   style="display:inline">
	<path
   d="m 267.5,28.9 242.5,140 v 280 L 267.5,588.9 25,448.9 v -280 L 267.5,28.9 M 267.5,0 255,7.2 12.5,147.2 0,154.4 v 308.9 l 12.5,7.2 242.5,140 12.5,7.2 12.5,-7.2 242.5,-140 12.5,-7.2 V 154.4 L 522.5,147.2 280,7.2 Z"
   id="path3" />
</g><g
   transform="matrix(0.03640231,0,0,-0.03640231,33.969229,545.51953)"
   fill="#000000"
   stroke="none"
   id="g2-4"
   style="display:inline"><path
     d="m 6169,11553 -225,-1237 -115,-17 C 5241,10214 4670,9990 4175,9652 3354,9091 2764,8219 2551,7250 c -27,-124 -61,-326 -61,-367 0,-18 -2,-33 -5,-33 -3,0 -550,-99 -1216,-220 C 603,6509 48,6409 34,6408 c -13,-1 -24,-5 -24,-8 0,-4 557,-108 1237,-231 l 1237,-225 17,-115 c 157,-1082 770,-2063 1674,-2681 411,-281 897,-492 1375,-597 124,-27 326,-61 368,-61 17,0 32,-2 32,-5 0,-3 99,-550 220,-1216 121,-666 221,-1221 222,-1235 1,-13 5,-24 8,-24 4,0 108,557 231,1237 l 225,1237 115,17 c 588,85 1159,309 1654,647 821,561 1411,1433 1624,2402 27,124 61,326 61,368 0,17 2,32 5,32 3,0 550,99 1216,220 666,121 1221,221 1235,222 13,1 24,5 24,8 0,4 -557,108 -1237,231 l -1237,225 -17,115 c -157,1082 -770,2063 -1674,2681 -411,281 -897,492 -1375,597 -124,27 -326,61 -367,61 -18,0 -33,2 -33,5 0,3 -99,550 -220,1216 -121,666 -221,1221 -222,1235 -1,13 -5,24 -8,24 -4,0 -108,-557 -231,-1237 z M 5750,9260 c 0,-15 -251,-1394 -255,-1398 -1,-1 -240,112 -531,251 -291,140 -530,253 -532,252 -2,-1 110,-238 248,-526 138,-288 252,-528 253,-533 1,-5 -302,-64 -673,-132 -371,-67 -687,-125 -702,-128 -19,-4 -28,-1 -28,8 0,7 15,69 34,138 270,984 1070,1781 2056,2048 119,32 130,34 130,20 z m 1409,-15 c 289,-73 608,-218 878,-398 582,-389 1017,-991 1200,-1659 19,-71 33,-132 30,-135 -5,-4 -1398,245 -1405,251 -1,2 112,241 251,532 140,291 253,530 252,532 -1,2 -238,-110 -526,-248 -288,-138 -528,-252 -533,-253 -5,-1 -64,302 -132,673 -67,371 -125,687 -128,703 -3,15 -1,27 5,27 6,0 54,-11 108,-25 z M 9270,5747 c 0,-27 -70,-268 -106,-363 -311,-834 -969,-1478 -1806,-1769 -114,-40 -298,-89 -305,-81 -5,4 245,1397 252,1404 1,1 240,-112 531,-251 291,-140 530,-253 532,-252 2,1 -110,238 -248,526 -138,288 -252,528 -253,533 -1,6 1299,253 1396,265 4,1 7,-5 7,-12 z M 4243,5624 c 380,-69 693,-127 695,-128 1,-2 -112,-241 -251,-532 -140,-291 -253,-530 -252,-532 1,-2 238,110 526,248 288,138 528,252 533,253 9,2 268,-1394 261,-1402 -7,-7 -189,42 -301,80 -921,315 -1636,1071 -1890,1997 -38,139 -38,142 -24,142 6,0 322,-57 703,-126 z"
     id="path1-0-8" /></g><g
   transform="matrix(0.01919814,-0.01919815,-0.01919815,-0.01919814,265.62615,561.32845)"
   fill="#000000"
   stroke="none"
   id="g2-4-7"
   style="display:inline"><path
     d="m 6169,11553 -225,-1237 -115,-17 C 5241,10214 4670,9990 4175,9652 3354,9091 2764,8219 2551,7250 c -27,-124 -61,-326 -61,-367 0,-18 -2,-33 -5,-33 -3,0 -550,-99 -1216,-220 C 603,6509 48,6409 34,6408 c -13,-1 -24,-5 -24,-8 0,-4 557,-108 1237,-231 l 1237,-225 17,-115 c 157,-1082 770,-2063 1674,-2681 411,-281 897,-492 1375,-597 124,-27 326,-61 368,-61 17,0 32,-2 32,-5 0,-3 99,-550 220,-1216 121,-666 221,-1221 222,-1235 1,-13 5,-24 8,-24 4,0 108,557 231,1237 l 225,1237 115,17 c 588,85 1159,309 1654,647 821,561 1411,1433 1624,2402 27,124 61,326 61,368 0,17 2,32 5,32 3,0 550,99 1216,220 666,121 1221,221 1235,222 13,1 24,5 24,8 0,4 -557,108 -1237,231 l -1237,225 -17,115 c -157,1082 -770,2063 -1674,2681 -411,281 -897,492 -1375,597 -124,27 -326,61 -367,61 -18,0 -33,2 -33,5 0,3 -99,550 -220,1216 -121,666 -221,1221 -222,1235 -1,13 -5,24 -8,24 -4,0 -108,-557 -231,-1237 z M 5750,9260 c 0,-15 -251,-1394 -255,-1398 -1,-1 -240,112 -531,251 -291,140 -530,253 -532,252 -2,-1 110,-238 248,-526 138,-288 252,-528 253,-533 1,-5 -302,-64 -673,-132 -371,-67 -687,-125 -702,-128 -19,-4 -28,-1 -28,8 0,7 15,69 34,138 270,984 1070,1781 2056,2048 119,32 130,34 130,20 z m 1409,-15 c 289,-73 608,-218 878,-398 582,-389 1017,-991 1200,-1659 19,-71 33,-132 30,-135 -5,-4 -1398,245 -1405,251 -1,2 112,241 251,532 140,291 253,530 252,532 -1,2 -238,-110 -526,-248 -288,-138 -528,-252 -533,-253 -5,-1 -64,302 -132,673 -67,371 -125,687 -128,703 -3,15 -1,27 5,27 6,0 54,-11 108,-25 z M 9270,5747 c 0,-27 -70,-268 -106,-363 -311,-834 -969,-1478 -1806,-1769 -114,-40 -298,-89 -305,-81 -5,4 245,1397 252,1404 1,1 240,-112 531,-251 291,-140 530,-253 532,-252 2,1 -110,238 -248,526 -138,288 -252,528 -253,533 -1,6 1299,253 1396,265 4,1 7,-5 7,-12 z M 4243,5624 c 380,-69 693,-127 695,-128 1,-2 -112,-241 -251,-532 -140,-291 -253,-530 -252,-532 1,-2 238,110 526,248 288,138 528,252 533,253 9,2 268,-1394 261,-1402 -7,-7 -189,42 -301,80 -921,315 -1636,1071 -1890,1997 -38,139 -38,142 -24,142 6,0 322,-57 703,-126 z"
     id="path1-0-8-1" /></g>
<g
   id="layer2"
   style="display:inline" /><circle
   style="display:inline;fill:#ffffff;stroke-width:0.971753"
   id="path4"
   cx="267.59131"
   cy="313.5574"
   r="117.5" /><g
   id="layer1"
   transform="matrix(0.87028523,0,0,0.86979896,209.12469,-130.48749)"
   style="display:inline"><path
     id="path9701"
     style="display:inline;fill:#000000;stroke-width:0.844594"
     d="m 58.715906,387.10075 c -0.46953,0 -4.55524,0.59957 -9.07939,1.31967 -18.53376,2.95 -36.18914,9.82937 -51.0455297,19.90031 -10.1477903,6.87964 -25.7389703,22.43156 -32.4906603,32.41127 -11.68073,17.26686 -18.95268,36.89859 -21.06247,56.82508 l -0.55426,5.30506 14.22633,-0.23754 14.2314,-0.23648 1.02939,-6.07052 c 2.36223,-14.11907 6.22152,-24.42649 13.64525,-36.39691 13.9611303,-22.5101 38.89015,-39.02951 65.19247,-43.20602 3.01941,-0.47944 5.77491,-0.89399 6.12329,-0.89737 0.3484,-0.003 0.63345,-6.46115 0.63345,-14.35809 0,-9.11063 -0.30288,-14.35808 -0.84459,-14.35808 z m 18.79219,0 c -0.80317,-0.003 -1.05573,3.42144 -1.05573,14.30571 v 14.30572 l 4.01181,0.55427 c 13.6064,1.84915 31.027834,8.69678 42.229664,16.60132 6.88192,4.85658 16.12919,13.80996 21.2998,20.64017 8.68495,11.47212 16.06164,29.1976 17.97379,43.17984 l 0.95016,6.9679 h 14.30573 14.30572 l -0.60705,-5.701 c -2.91385,-27.97293 -15.30403,-53.85128 -35.49657,-74.13841 -19.66636,-19.76348 -41.49994,-30.98813 -69.018474,-35.44758 -4.30185,-0.70102 -8.31417,-1.26689 -8.89525,-1.26689 z m -74.6671097,57.61731 -3.19357999,3.51029 C -10.536704,459.39979 -19.317094,477.29419 -22.734324,493.83639 c -2.21206,10.70945 -2.18724,10.80151 4.80362,15.94171 7.41275,5.45049 11.0194103,7.68081 17.39356031,10.76857 17.43494969,8.44576 39.46446969,10.40284 57.14180969,5.06756 15.44761,-4.66242 20.8167,-5.18776 29.58695,-2.9033 5.54822,1.44511 21.773614,9.64526 26.050624,13.17059 l 2.74495,2.26984 -9.92398,30.19421 c -5.458608,16.61654 -9.733934,30.53122 -9.501674,30.90705 0.49543,0.80163 5.786804,-1.25193 8.657084,-3.35202 1.46798,-1.07407 3.66292,-6.04526 8.26113,-18.76601 3.44112,-9.51942 10.83023,-30.04641 16.44339,-45.60804 5.61283,-15.56164 11.67228,-32.28459 13.46113,-37.16212 1.78885,-4.87752 3.83078,-10.04816 4.14622,-11.37671 0.56221,-2.3668 4.83332,-10.74588 1.98629,-11.00334 -6.6463,-0.60104 -33.18886,-5.02978 -4.20485,-0.31998 5.67846,-4.37905 -8.12495,-15.23826 -15.49276,-20.00462 -7.90084,-5.11107 -13.01519,-6.56124 -21.53714,-6.09697 -5.97583,0.32558 -8.125988,0.94798 -18.581044,5.46352 -19.29896,8.33521 -25.47462,9.84373 -40.96278,9.92397 -11.04052,0.0571 -17.81669,-1.11411 -27.02698,-4.64526 -5.7168,-2.19173 -13.2634897,-6.70676 -15.8884897,-9.50168 l -1.97956,-2.08514 z M 138.55868,459.73492 c -0.23631,0 -0.41626,2.56546 -0.39591,5.70101 0,0 9.89513,11.67481 10.16142,11.53402 0.26636,-0.14081 1.01471,-1.86334 1.66284,-3.82701 0.9979,-3.02348 1.40854,-3.09912 0.0532,-4.06551 -0.54801,-0.39075 -1.65734,-1.45897 -4.36807,-3.95103 -2.71071,-2.49205 -6.87725,-5.39139 -7.11358,-5.39139 z m -162.161924,49.83101 c -1.49569,0 0.90431,9.55742 4.03817,16.04728 2.76039,5.7163 4.85523,8.55572 10.2668803,13.93579 7.86764,7.82144 14.80573,11.85556 26.2085797,15.22886 7.38386,2.18453 8.04636,2.23817 22.9628,1.74198 14.8032,-0.49247 15.56332,-0.44584 21.00927,1.53082 3.10692,1.12769 6.01621,2.42669 6.46637,2.87686 0.52825,0.52824 -1.17678,6.62819 -4.80363,17.1824 -8.4249,24.51602 -8.13597,23.37581 -6.4928,24.33442 0.76806,0.44838 2.97169,0.83049 4.88276,0.8446 3.32262,0.0245 3.52406,-0.13082 4.80362,-3.56317 0.73599,-1.97424 5.35607,-14.8015 10.26688,-28.50503 4.91105,-13.70352 10.31248,-28.60637 11.98309,-33.1241 1.67027,-4.51781 2.81334,-8.76266 2.56013,-9.42229 -0.74084,-1.93066 -8.93157,-4.26367 -14.51687,-4.14374 -3.05287,0.0655 -8.42533,1.17129 -13.51349,2.77128 -4.64526,1.46072 -12.8167,3.22035 -18.15876,3.93259 -21.76348,2.90177 -41.1950397,-2.62068 -61.76089,-17.57767 -3.08429,-2.24324 -5.87541,-4.09104 -6.20253,-4.09104 z m -16.07346,9.3429 c -1.41434,0.0132 -2.97389,0.0339 -4.6716,0.0791 -12.69087,0.33784 -11.63427,-0.97499 -9.58107,12.00928 3.68851,23.31922 15.10978,46.49825 31.61989,64.13673 19.1469303,20.45436 42.00247,32.7111 70.47118,37.79555 4.64526,0.82969 9.01603,1.43521 9.71282,1.34612 1.05827,-0.13538 1.31132,-2.46705 1.5044,-14.1993 l 0.23754,-14.04136 -5.72737,-0.97654 c -40.61733,-6.91239 -71.01002,-35.8572 -79.12825,-75.37995 -0.73542,-3.58049 -1.34612,-7.27422 -1.34612,-8.182 0,-1.9967 -3.19054,-2.68419 -13.0912,-2.58657 z m 202.465924,1.6364 -0.95016,5.4635 c -2.60575,14.96366 -9.26604,30.61566 -17.84205,41.99234 -9.41383,12.48816 -25.27699,24.75925 -40.09199,30.98644 -5.471118,2.29958 -16.752504,5.30641 -24.282054,6.46637 l -3.16722,0.47508 v 13.75083 c 0,7.56621 0.19875,13.95015 0.42229,14.17312 1.21402,1.21402 20.923946,-2.41545 30.405344,-5.59542 6.17069,-2.0696 17.66975,-7.3962 23.22633,-10.76857 33.8665,-20.55319 55.10042,-53.08101 60.38842,-92.50831 l 0.58065,-4.43412 h -14.3319 -14.35809 z" /></g><g
   id="layer1-8"
   transform="matrix(0.25968096,0,0,0.25948068,236.17275,204.60671)"><g
     id="layer1-4"
     transform="translate(-248.4,-65.648)"><g
       id="g2844"
       transform="translate(591.43,-22.857)"><path
         id="path2842"
         style="fill:#1a1a1a"
         d="m -232.5,932.84 c -35.381,-1.7129 -70.045,-6.849 -97.5,-14.446 -92.556,-25.612 -171.79,-79.569 -229.64,-156.38 -27.243,-36.173 -50.808,-82.029 -64.24,-125 -10.99,-35.161 -16.592,-66.353 -19.263,-107.26 -2.3905,-36.614 2.1478,-82.092 12.248,-122.74 37.45,-150.71 157.48,-270.74 308.39,-308.38 31.797,-7.9317 72.667,-13.119 103.36,-13.119 12.07,0 43.693,2.4783 58.141,4.5565 78.733,11.325 151.4,43.836 213,95.291 6.325,5.2836 18.7,16.817 27.5,25.629 66.693,66.788 108.94,152.93 120.4,245.52 4.6913,37.89 4.704,69.024 0.043,105.76 -16.409,129.32 -91.189,243.53 -203.44,310.73 -51,30.53 -107.6,49.821 -167,56.914 -12.563,1.5002 -48.396,3.7813 -53.5,3.4057 -1.375,-0.10117 -5.2,-0.31466 -8.5,-0.47442 z" /><path
         id="path2840"
         style="fill:#ffffff"
         d="M -176.27,857.12 C -99.909,846.92 -32,814.14 22.85,761 81.542,704.14 117.78,631.01 127.67,549.51 c 2.1464,-17.697 2.4402,-59.055 0.53626,-75.5 -9.58,-82.69 -43.606,-154.07 -100.63,-211.08 -17.163,-17.17 -29.849,-27.93 -46.832,-39.73 -49.14,-34.138 -97.601,-52.877 -158.75,-61.387 -17.833,-2.4818 -66.18,-2.4599 -84.5,0.0383 -42.865,5.8453 -77.288,16.391 -114.56,35.097 -95.032,47.689 -165.16,139.1 -185.81,242.19 -5.6024,27.977 -6.5502,38.159 -6.5502,70.366 0,31.46 0.9385,42.024 6.0407,68 19.475,99.151 82.622,186.29 171.88,237.18 31.386,17.896 68.759,31.655 105.2,38.727 9.2868,1.8026 18.259,3.091 35.302,5.0693 12.041,1.3976 60.685,0.50725 74.728,-1.3679 z" /><path
         id="path2838"
         style="fill:#1a1a1a"
         d="m -207.89,837.3 c -5.1627,-0.4682 -9.9894,-1.1886 -10.726,-1.6009 -1.3981,-0.7824 -0.67608,-2.1126 28.603,-52.697 7.0037,-12.1 22.745,-39.325 34.98,-60.5 12.235,-21.175 26.083,-45.025 30.773,-53 4.6897,-7.975 9.8972,-16.975 11.572,-20 1.675,-3.025 7.2342,-12.62 12.354,-21.322 l 9.3084,-15.822 -1.6179,-3.1782 c -0.88987,-1.748 -3.2198,-5.4282 -5.1776,-8.1782 -20.999,-29.495 -49.249,-43.679 -94.486,-47.436 -17.446,-1.4492 -35.251,-1.3275 -67.196,0.45919 -54.969,3.0744 -64.467,3.4592 -85.605,3.4681 -53.988,0.0226 -91.809,-7.1507 -127.82,-24.242 -25.855,-12.273 -47.999,-29.036 -69,-52.234 l -6.3236,-6.9852 0.6444,-7.0148 c 0.89957,-9.7926 6.0692,-34.518 10.115,-48.38 15.053,-51.571 40.075,-95.111 76.901,-133.82 9.6865,-10.18 29.975,-28.359 38.195,-34.223 l 3.3677,-2.4024 9.7603,9.9933 c 31.285,32.032 69.391,46.287 123.76,46.298 26.683,0.005 50.245,-2.5668 114.5,-12.499 51.119,-7.9016 75.315,-10.083 101.5,-9.1517 35.249,1.2541 59.006,7.9246 82.528,23.173 10.45,6.774 27.996,24.711 36.185,36.991 7.3856,11.076 15.72,27.867 21.213,42.736 l 3.5966,9.7364 -5.8674,10.264 c -3.227,5.645 -12.073,21.064 -19.657,34.264 -7.5845,13.2 -14.555,25.35 -15.491,27 -3.6231,6.3902 -24.958,43.116 -38.341,66 -7.7197,13.2 -15.452,26.475 -17.182,29.5 -6.1405,10.733 -42.194,72.514 -66.236,113.5 -8.9544,15.265 -41.094,70.555 -44.468,76.5 -1.405,2.475 -8.5307,14.85 -15.835,27.5 -7.3041,12.65 -15.186,26.375 -17.516,30.5 -10.378,18.375 -13.403,23.576 -14.351,24.674 -0.55748,0.64576 -3.6152,1.4499 -6.7951,1.787 -3.1798,0.33711 -6.9065,0.74228 -8.2815,0.90038 -1.375,0.15809 -6.724,-0.0956 -11.887,-0.56384 z" /><path
         id="path2834"
         style="fill:#1a1a1a"
         d="m -318.25,822.21 c -9.2125,-1.1324 -16.75,-2.4701 -16.75,-2.9726 0,-0.50247 16.237,-32.636 36.082,-71.409 19.845,-38.772 35.846,-70.732 35.556,-71.021 -0.90422,-0.90422 -12.694,-3.1167 -25.166,-4.7226 -15.132,-1.9485 -31.447,-3.1691 -67.973,-5.0852 -45.969,-2.4115 -66.404,-4.8472 -88.337,-10.529 -65.525,-16.975 -97.683,-60.834 -106.66,-145.47 -2.3545,-22.204 -3.4922,-21.599 11.744,-6.2436 39.823,40.134 85.237,59.474 152.25,64.835 17.913,1.4332 64.877,0.64751 95.5,-1.5978 30.813,-2.2591 65.509,-2.9705 79.165,-1.6231 14.394,1.4202 28.444,4.901 36.913,9.1448 9.8945,4.9583 9.7003,3.7696 2.7542,16.858 -10.389,19.575 -33.785,62.219 -62.34,113.63 -26.68,48.033 -51.838,93.87 -60.51,110.25 -2.4022,4.5375 -4.6185,8.1974 -4.9251,8.133 -0.30657,-0.0643 -8.0949,-1.0435 -17.307,-2.176 z" /></g></g></g></svg>
